<svg width="18" height="24" viewBox="0 0 18 24" fill="none" xmlns="http://www.w3.org/2000/svg">
<path d="M14.8435 2.06087C13.3566 0.730435 11.2696 0 9.00005 0C6.73049 0 4.64353 0.730435 3.15657 2.06087C1.33049 3.67826 0.391357 6.10435 0.391357 9.13043C0.391357 15.6783 7.93049 23.3739 8.26962 23.687C8.47831 23.8957 8.73918 24 9.00005 24C9.26092 24 9.54788 23.8957 9.73049 23.687C10.0696 23.3739 17.6087 15.6783 17.6087 9.13043C17.6087 6.10435 16.6696 3.67826 14.8435 2.06087ZM9.00005 21.4174C8.29571 20.6348 7.17397 19.3304 6.07831 17.7652C3.73049 14.4261 2.47831 11.4522 2.47831 9.13043C2.47831 2.6087 7.46092 2.08696 9.00005 2.08696C15.0522 2.08696 15.5218 7.48696 15.5218 9.13043C15.5218 13.7217 10.8522 19.3826 9.00005 21.4174ZM9.00005 4.51304C6.7044 4.51304 4.85223 6.41739 4.85223 8.73913C4.85223 11.0609 6.7044 12.9391 9.00005 12.9391C11.2957 12.9391 13.1479 11.0348 13.1479 8.71304C13.1479 6.3913 11.2957 4.51304 9.00005 4.51304ZM9.00005 11.113C7.72179 11.113 6.67831 10.0435 6.67831 8.71304C6.67831 7.38261 7.72179 6.31304 9.00005 6.31304C10.2783 6.31304 11.3218 7.38261 11.3218 8.71304C11.3218 10.0435 10.2783 11.113 9.00005 11.113Z" fill="#F7931E"/>
</svg>
